<svg xmlns="http://www.w3.org/2000/svg" viewBox="0 0 920 620" role="img" aria-labelledby="title desc">
  <title id="title">School ERP dashboard illustration</title>
  <desc id="desc">A modern school building with dashboard charts and chat panels.</desc>
  <defs>
    <linearGradient id="sky" x1="0" x2="1" y1="0" y2="1">
      <stop offset="0" stop-color="#e8f4ff"/>
      <stop offset="0.52" stop-color="#f9fbff"/>
      <stop offset="1" stop-color="#fff3e8"/>
    </linearGradient>
    <linearGradient id="glass" x1="0" x2="1" y1="0" y2="1">
      <stop offset="0" stop-color="#38bdf8"/>
      <stop offset="1" stop-color="#2563eb"/>
    </linearGradient>
    <linearGradient id="warm" x1="0" x2="1" y1="0" y2="1">
      <stop offset="0" stop-color="#fb7185"/>
      <stop offset="1" stop-color="#f59e0b"/>
    </linearGradient>
    <filter id="shadow" x="-20%" y="-20%" width="140%" height="140%">
      <feDropShadow dx="0" dy="18" stdDeviation="18" flood-color="#1f2937" flood-opacity="0.16"/>
    </filter>
  </defs>
  <rect width="920" height="620" rx="34" fill="url(#sky)"/>
  <path d="M90 516C174 458 250 456 330 492C410 528 495 524 581 486C672 446 748 452 830 510V620H90Z" fill="#dff5ea"/>
  <path d="M0 466C115 398 238 404 352 452C465 500 551 506 662 454C764 406 842 412 920 456V620H0Z" fill="#cceee0"/>
  <g filter="url(#shadow)">
    <rect x="108" y="126" width="420" height="330" rx="18" fill="#ffffff"/>
    <path d="M138 200L318 92L498 200Z" fill="#334155"/>
    <rect x="158" y="210" width="320" height="246" rx="10" fill="#f8fafc"/>
    <rect x="202" y="246" width="68" height="72" rx="8" fill="url(#glass)" opacity="0.92"/>
    <rect x="286" y="246" width="68" height="72" rx="8" fill="url(#glass)" opacity="0.78"/>
    <rect x="370" y="246" width="68" height="72" rx="8" fill="url(#glass)" opacity="0.92"/>
    <rect x="210" y="344" width="82" height="112" rx="10" fill="#334155"/>
    <rect x="314" y="348" width="116" height="54" rx="8" fill="#e2e8f0"/>
    <rect x="314" y="416" width="116" height="40" rx="8" fill="#e2e8f0"/>
    <rect x="138" y="200" width="360" height="20" rx="10" fill="#f59e0b"/>
    <circle cx="318" cy="169" r="26" fill="#ffffff"/>
    <path d="M318 146V170L336 181" fill="none" stroke="#2563eb" stroke-width="7" stroke-linecap="round"/>
  </g>
  <g filter="url(#shadow)">
    <rect x="548" y="112" width="250" height="164" rx="18" fill="#ffffff"/>
    <rect x="578" y="144" width="102" height="14" rx="7" fill="#cbd5e1"/>
    <rect x="578" y="180" width="28" height="62" rx="7" fill="#38bdf8"/>
    <rect x="620" y="160" width="28" height="82" rx="7" fill="#2563eb"/>
    <rect x="662" y="194" width="28" height="48" rx="7" fill="#22c55e"/>
    <rect x="704" y="170" width="28" height="72" rx="7" fill="#fb7185"/>
    <circle cx="750" cy="156" r="22" fill="#ffedd5"/>
    <path d="M740 158L748 166L762 146" fill="none" stroke="#f97316" stroke-width="7" stroke-linecap="round" stroke-linejoin="round"/>
  </g>
  <g filter="url(#shadow)">
    <rect x="588" y="314" width="214" height="174" rx="18" fill="#ffffff"/>
    <circle cx="636" cy="362" r="30" fill="url(#warm)"/>
    <rect x="686" y="340" width="80" height="12" rx="6" fill="#cbd5e1"/>
    <rect x="686" y="366" width="58" height="10" rx="5" fill="#e2e8f0"/>
    <rect x="624" y="414" width="144" height="42" rx="12" fill="#eef6ff"/>
    <path d="M644 434H726" stroke="#2563eb" stroke-width="8" stroke-linecap="round"/>
  </g>
  <g filter="url(#shadow)">
    <rect x="434" y="388" width="148" height="92" rx="18" fill="#111827"/>
    <circle cx="468" cy="426" r="14" fill="#22c55e"/>
    <rect x="494" y="412" width="54" height="10" rx="5" fill="#ffffff" opacity="0.92"/>
    <rect x="494" y="434" width="38" height="9" rx="4.5" fill="#ffffff" opacity="0.58"/>
  </g>
</svg>
